<svg width="20" height="20" viewBox="0 0 20 20" fill="none" xmlns="http://www.w3.org/2000/svg">
<rect x="0.5" y="0.5" width="19" height="19" rx="9.5" stroke="#383870"/>
<path d="M9.73716 10.0017H6.11845M6.01588 10.519L5.41802 12.4667C5.09057 13.5334 4.92685 14.0668 5.04435 14.3952C5.14638 14.6804 5.36552 14.8967 5.63593 14.979C5.94731 15.0738 6.41762 14.8429 7.35824 14.3814L13.3885 11.4219C14.3066 10.9713 14.7657 10.746 14.9075 10.4331C15.0308 10.1612 15.0308 9.84208 14.9075 9.57018C14.7657 9.25726 14.3066 9.03195 13.3885 8.58137L7.34784 5.61684C6.41005 5.15661 5.94117 4.9265 5.63009 5.0209C5.35994 5.10287 5.14082 5.31855 5.03843 5.60325C4.92053 5.93109 5.08251 6.46329 5.40646 7.52771L6.01704 9.53397C6.07267 9.71677 6.1005 9.8082 6.11148 9.90165C6.12122 9.98465 6.12112 10.0686 6.11118 10.1516C6.09998 10.245 6.07195 10.3363 6.01588 10.519Z" stroke="#383870" stroke-linecap="round" stroke-linejoin="round"/>
</svg>
