<svg width="20" height="20" viewBox="0 0 20 20" fill="none" xmlns="http://www.w3.org/2000/svg">
<path d="M10.0356 13.3086L4.74353 18.6007C4.11591 19.2283 3.09834 19.2283 2.47072 18.6007C1.84309 17.9731 1.84309 16.9555 2.47072 16.3279L7.7628 11.0357L2.47072 5.74359C1.84309 5.11597 1.84309 4.09838 2.47072 3.47076C3.09834 2.84313 4.11591 2.84313 4.74353 3.47076L10.0356 8.76289L15.3277 3.47076C15.9553 2.84313 16.9729 2.84313 17.6005 3.47076C18.2281 4.09838 18.2281 5.11597 17.6005 5.74359L12.3084 11.0357L17.6005 16.3279C18.2281 16.9555 18.2281 17.9731 17.6005 18.6007C16.9729 19.2283 15.9553 19.2283 15.3277 18.6007L10.0356 13.3086Z" fill="#7F90C2"/>
<path d="M10.0356 11.3086L4.74353 16.6007C4.11591 17.2283 3.09834 17.2283 2.47072 16.6007C1.84309 15.9731 1.84309 14.9555 2.47072 14.3279L7.7628 9.03572L2.47072 3.74359C1.84309 3.11597 1.84309 2.09838 2.47072 1.47076C3.09834 0.843132 4.11591 0.843132 4.74353 1.47076L10.0356 6.76289L15.3277 1.47076C15.9553 0.843132 16.9729 0.843132 17.6005 1.47076C18.2281 2.09838 18.2281 3.11597 17.6005 3.74359L12.3084 9.03572L17.6005 14.3279C18.2281 14.9555 18.2281 15.9731 17.6005 16.6007C16.9729 17.2283 15.9553 17.2283 15.3277 16.6007L10.0356 11.3086Z" fill="#BBDDFF"/>
</svg>
