<svg width="30" height="30" viewBox="0 0 30 30" fill="none" xmlns="http://www.w3.org/2000/svg">
<rect x="1" y="1" width="28" height="28" rx="14" stroke="#383870" stroke-width="2"/>
<path d="M12.3 19.3C12.2067 18.8867 12.16 18.4733 12.16 18.06C12.16 17.14 12.4267 16.4133 12.96 15.88C13.1467 15.6933 13.3467 15.5333 13.56 15.4C13.7867 15.2667 14.0533 15.12 14.36 14.96L14.76 14.74C15.5467 14.3133 16.1267 13.8667 16.5 13.4C16.8733 12.9333 17.06 12.4267 17.06 11.88C17.06 11.1333 16.8133 10.5133 16.32 10.02C15.84 9.52667 15.22 9.28 14.46 9.28C13.86 9.28 13.34 9.41333 12.9 9.68C12.4733 9.93333 12.2467 10.2267 12.22 10.56V10.62C12.22 10.8467 12.32 10.98 12.52 11.02L12.18 12.38C11.7267 12.3267 11.3533 12.1333 11.06 11.8C10.7667 11.4533 10.62 11.0467 10.62 10.58C10.62 10.0467 10.7867 9.56667 11.12 9.14C11.4667 8.7 11.9333 8.36 12.52 8.12C13.1067 7.88 13.7667 7.76 14.5 7.76C15.26 7.76 15.96 7.95333 16.6 8.34C17.24 8.71333 17.7467 9.22667 18.12 9.88C18.5067 10.52 18.7 11.22 18.7 11.98C18.7 12.7933 18.4467 13.52 17.94 14.16C17.4333 14.7867 16.64 15.3933 15.56 15.98C15.1467 16.2067 14.74 16.4667 14.34 16.76C13.8733 17.1067 13.64 17.5867 13.64 18.2C13.64 18.4667 13.6867 18.7333 13.78 19L12.3 19.3ZM13.34 22.26C13.0733 22.26 12.8333 22.1533 12.62 21.94C12.4067 21.7267 12.3 21.4867 12.3 21.22C12.3 20.94 12.4067 20.6933 12.62 20.48C12.8333 20.2667 13.0733 20.16 13.34 20.16C13.62 20.16 13.8667 20.2667 14.08 20.48C14.3067 20.6933 14.42 20.94 14.42 21.22C14.42 21.4867 14.3067 21.7267 14.08 21.94C13.8667 22.1533 13.62 22.26 13.34 22.26Z" fill="#383870"/>
</svg>
